{
  "accessors": [
    {
      "bufferView": 2,
      "componentType": 5126,
      "count": 2011,
      "max": [
        0.82495594024658203,
        1.3561904430389404,
        1.8463605642318726
      ],
      "min": [
        -0.82495701313018799,
        0.82992380857467651,
        0.90994894504547119
      ],
      "type": "VEC3"
    },
    {
      "bufferView": 2,
      "byteOffset": 24132,
      "componentType": 5126,
      "count": 2011,
      "max": [
        0.0099898418411612511,
        0.0099926963448524475,
        0.0099977366626262665
      ],
      "min": [
        -0.0099898418411612511,
        -0.0099998023360967636,
        -0.0099990908056497574
      ],
      "type": "VEC3"
    },
    {
      "bufferView": 3,
      "componentType": 5126,
      "count": 2011,
      "max": [
        0.9999963641166687,
        0.99910646677017212,
        0.9998820424079895,
        1
      ],
      "min": [
        -0.99999290704727173,
        -0.99719953536987305,
        -0.99988210201263428,
        -1
      ],
      "type": "VEC4"
    },
    {
      "bufferView": 3,
      "byteOffset": 32176,
      "componentType": 5126,
      "count": 2011,
      "max": [
        1,
        1,
        1,
        1
      ],
      "min": [
        1,
        1,
        1,
        1
      ],
      "type": "VEC4"
    },
    {
      "bufferView": 1,
      "componentType": 5126,
      "count": 2011,
      "max": [
        0.98372125625610352,
        0.99113082885742188
      ],
      "min": [
        0.016278743743896484,
        0.017610594630241394
      ],
      "type": "VEC2"
    },
    {
      "bufferView": 0,
      "componentType": 5125,
      "count": 9351,
      "max": [
        2010
      ],
      "min": [
        0
      ],
      "type": "SCALAR"
    },
    {
      "bufferView": 2,
      "byteOffset": 48264,
      "componentType": 5126,
      "count": 386,
      "max": [
        0.082289017736911774,
        0.96914738416671753,
        1.7147599458694458
      ],
      "min": [
        -0.082289963960647583,
        0.92109560966491699,
        1.6379083395004272
      ],
      "type": "VEC3"
    },
    {
      "bufferView": 2,
      "byteOffset": 52896,
      "componentType": 5126,
      "count": 386,
      "max": [
        0.0099509535357356071,
        -0.00022660930699203163,
        0.0097443200647830963
      ],
      "min": [
        -0.0099509544670581818,
        -0.0099743679165840149,
        -0.0074254600331187248
      ],
      "type": "VEC3"
    },
    {
      "bufferView": 3,
      "byteOffset": 64352,
      "componentType": 5126,
      "count": 386,
      "max": [
        0.99456661939620972,
        0.99868524074554443,
        0.56441152095794678,
        1
      ],
      "min": [
        0.025446735322475433,
        -0.99856859445571899,
        -0.61415982246398926,
        1
      ],
      "type": "VEC4"
    },
    {
      "bufferView": 3,
      "byteOffset": 70528,
      "componentType": 5126,
      "count": 386,
      "max": [
        1,
        1,
        1,
        1
      ],
      "min": [
        1,
        1,
        1,
        1
      ],
      "type": "VEC4"
    },
    {
      "bufferView": 1,
      "byteOffset": 16088,
      "componentType": 5126,
      "count": 386,
      "max": [
        0.88292020559310913,
        0.74795812368392944
      ],
      "min": [
        0.12227803468704224,
        0.23491224646568298
      ],
      "type": "VEC2"
    },
    {
      "bufferView": 0,
      "byteOffset": 37404,
      "componentType": 5125,
      "count": 2112,
      "max": [
        385
      ],
      "min": [
        0
      ],
      "type": "SCALAR"
    },
    {
      "bufferView": 4,
      "componentType": 5126,
      "count": 1,
      "max": [
        1,
        0,
        0,
        0,
        0,
        1,
        0,
        0,
        0,
        0,
        1,
        0,
        0,
        0,
        0,
        1
      ],
      "min": [
        1,
        0,
        0,
        0,
        0,
        1,
        0,
        0,
        0,
        0,
        1,
        0,
        0,
        0,
        0,
        1
      ],
      "type": "MAT4"
    }
  ],
  "asset": {
    "extras": {
      "author": "simsora13 (https://sketchfab.com/simsora13)",
      "license": "CC-BY-4.0 (http://creativecommons.org/licenses/by/4.0/)",
      "source": "https://sketchfab.com/models/41961938b3fe469d8b201db298a564fb",
      "title": "Rainwolf HUB1"
    },
    "generator": "Sketchfab-3.47.8",
    "version": "2.0"
  },
  "bufferViews": [
    {
      "buffer": 0,
      "byteLength": 45852,
      "byteOffset": 0,
      "name": "floatBufferViews",
      "target": 34963
    },
    {
      "buffer": 0,
      "byteLength": 19176,
      "byteOffset": 45852,
      "byteStride": 8,
      "name": "floatBufferViews",
      "target": 34962
    },
    {
      "buffer": 0,
      "byteLength": 57528,
      "byteOffset": 65028,
      "byteStride": 12,
      "name": "floatBufferViews",
      "target": 34962
    },
    {
      "buffer": 0,
      "byteLength": 76704,
      "byteOffset": 122556,
      "byteStride": 16,
      "name": "floatBufferViews",
      "target": 34962
    },
    {
      "buffer": 0,
      "byteLength": 64,
      "byteOffset": 199260,
      "byteStride": 64,
      "name": "floatBufferViews"
    }
  ],
  "buffers": [
    {
      "byteLength": 199324,
      "uri": "scene.bin"
    }
  ],
  "images": [
    {
      "uri": "textures/Material.001_baseColor.png"
    },
    {
      "uri": "textures/Material_baseColor.png"
    }
  ],
  "materials": [
    {
      "alphaMode": "BLEND",
      "doubleSided": true,
      "emissiveFactor": [
        0,
        0,
        0
      ],
      "name": "Material",
      "pbrMetallicRoughness": {
        "baseColorFactor": [
          1,
          1,
          1,
          1
        ],
        "baseColorTexture": {
          "index": 1,
          "texCoord": 0
        },
        "metallicFactor": 0,
        "roughnessFactor": 1
      }
    },
    {
      "doubleSided": true,
      "emissiveFactor": [
        0,
        0,
        0
      ],
      "name": "Material.001",
      "pbrMetallicRoughness": {
        "baseColorFactor": [
          1,
          1,
          1,
          1
        ],
        "baseColorTexture": {
          "index": 0,
          "texCoord": 0
        },
        "metallicFactor": 0,
        "roughnessFactor": 1
      }
    }
  ],
  "meshes": [
    {
      "primitives": [
        {
          "attributes": {
            "COLOR_0": 3,
            "NORMAL": 1,
            "POSITION": 0,
            "TANGENT": 2,
            "TEXCOORD_0": 4
          },
          "indices": 5,
          "material": 0,
          "mode": 4
        }
      ]
    },
    {
      "primitives": [
        {
          "attributes": {
            "COLOR_0": 9,
            "NORMAL": 7,
            "POSITION": 6,
            "TANGENT": 8,
            "TEXCOORD_0": 10
          },
          "indices": 11,
          "material": 1,
          "mode": 4
        }
      ]
    }
  ],
  "nodes": [
    {
      "children": [
        1
      ],
      "name": "RootNode (gltf orientation matrix)",
      "rotation": [
        -0.70710678118654746,
        -0,
        -0,
        0.70710678118654757
      ]
    },
    {
      "children": [
        2
      ],
      "name": "RootNode (model correction matrix)"
    },
    {
      "children": [
        3
      ],
      "matrix": [
        1,
        0,
        0,
        0,
        0,
        0,
        1,
        0,
        0,
        -1,
        0,
        0,
        0,
        0,
        0,
        1
      ],
      "name": "43efdb25ee6e4131a73efdede3515979.fbx"
    },
    {
      "children": [
        4
      ],
      "name": "RootNode"
    },
    {
      "children": [
        5
      ],
      "matrix": [
        100,
        0,
        0,
        0,
        0,
        -1.6292067939183141e-05,
        -99.999999999998678,
        0,
        0,
        99.999999999998678,
        -1.6292067939183141e-05,
        0,
        0,
        0,
        0,
        1
      ],
      "name": "Armature.001"
    },
    {
      "children": [
        6,
        7
      ],
      "name": ""
    },
    {
      "name": "_rootJoint"
    },
    {
      "children": [
        8,
        9
      ],
      "matrix": [
        0.99999830126762401,
        -5.8412454357891921e-08,
        7.1525450806396692e-09,
        0,
        5.841249582657909e-08,
        0.99999904632565761,
        2.8689810889709654e-07,
        0,
        -7.1525671681611513e-09,
        -2.8689810847930172e-07,
        0.99999904632567438,
        0,
        5.3644173547695573e-07,
        -5.9604644775390625e-06,
        -2.8032249730358672e-06,
        1
      ],
      "name": ""
    },
    {
      "mesh": 0,
      "name": ""
    },
    {
      "mesh": 1,
      "name": ""
    }
  ],
  "samplers": [
    {
      "magFilter": 9729,
      "minFilter": 9987,
      "wrapS": 10497,
      "wrapT": 10497
    }
  ],
  "scene": 0,
  "scenes": [
    {
      "name": "OSG_Scene",
      "nodes": [
        0
      ]
    }
  ],
  "skins": [
    {
      "inverseBindMatrices": 12,
      "joints": [
        6
      ],
      "skeleton": 6
    }
  ],
  "textures": [
    {
      "sampler": 0,
      "source": 0
    },
    {
      "sampler": 0,
      "source": 1
    }
  ]
}

