{
    "asset": {
        "generator": "FBX2glTF",
        "version": "2.0"
    },
    "scene": 0,
    "buffers": [
        {
            "byteLength": 137976,
            "uri": "buffer.bin"
        }
    ],
    "bufferViews": [
        {
            "buffer": 0,
            "byteLength": 4224,
            "byteOffset": 0,
            "target": 34963
        },
        {
            "buffer": 0,
            "byteLength": 4632,
            "byteOffset": 4224,
            "target": 34962
        },
        {
            "buffer": 0,
            "byteLength": 4632,
            "byteOffset": 8856,
            "target": 34962
        },
        {
            "buffer": 0,
            "byteLength": 6176,
            "byteOffset": 13488,
            "target": 34962
        },
        {
            "buffer": 0,
            "byteLength": 3088,
            "byteOffset": 19664,
            "target": 34962
        },
        {
            "buffer": 0,
            "byteLength": 18696,
            "byteOffset": 22752,
            "target": 34963
        },
        {
            "buffer": 0,
            "byteLength": 24132,
            "byteOffset": 41448,
            "target": 34962
        },
        {
            "buffer": 0,
            "byteLength": 24132,
            "byteOffset": 65580,
            "target": 34962
        },
        {
            "buffer": 0,
            "byteLength": 32176,
            "byteOffset": 89712,
            "target": 34962
        },
        {
            "buffer": 0,
            "byteLength": 16088,
            "byteOffset": 121888,
            "target": 34962
        }
    ],
    "scenes": [
        {
            "name": "Root Scene",
            "nodes": [
                0
            ]
        }
    ],
    "accessors": [
        {
            "componentType": 5123,
            "type": "SCALAR",
            "count": 2112,
            "bufferView": 0,
            "byteOffset": 0
        },
        {
            "componentType": 5126,
            "type": "VEC3",
            "count": 386,
            "bufferView": 1,
            "byteOffset": 0,
            "min": [
                -0.000822892470750958,
                -0.000789116835221648,
                0.0163790415972471
            ],
            "max": [
                0.000822894391603768,
                -0.000308599759591743,
                0.0171475578099489
            ]
        },
        {
            "componentType": 5126,
            "type": "VEC3",
            "count": 386,
            "bufferView": 2,
            "byteOffset": 0
        },
        {
            "componentType": 5126,
            "type": "VEC4",
            "count": 386,
            "bufferView": 3,
            "byteOffset": 0
        },
        {
            "componentType": 5126,
            "type": "VEC2",
            "count": 386,
            "bufferView": 4,
            "byteOffset": 0
        },
        {
            "componentType": 5123,
            "type": "SCALAR",
            "count": 9348,
            "bufferView": 5,
            "byteOffset": 0
        },
        {
            "componentType": 5126,
            "type": "VEC3",
            "count": 2011,
            "bufferView": 6,
            "byteOffset": 0,
            "min": [
                -0.00824955012649298,
                -0.00170083367265761,
                0.00909945741295815
            ],
            "max": [
                0.00824955105781555,
                0.00356182875111699,
                0.0184635631740093
            ]
        },
        {
            "componentType": 5126,
            "type": "VEC3",
            "count": 2011,
            "bufferView": 7,
            "byteOffset": 0
        },
        {
            "componentType": 5126,
            "type": "VEC4",
            "count": 2011,
            "bufferView": 8,
            "byteOffset": 0
        },
        {
            "componentType": 5126,
            "type": "VEC2",
            "count": 2011,
            "bufferView": 9,
            "byteOffset": 0
        }
    ],
    "images": [
        {
            "name": "ben.png",
            "uri": "ben.png"
        },
        {
            "name": "Yeen 2.75 eyees.png",
            "uri": "Yeen 2.75 eyees.png"
        }
    ],
    "samplers": [
        {}
    ],
    "textures": [
        {
            "name": "Texture",
            "sampler": 0,
            "source": 0
        },
        {
            "name": "Texture",
            "sampler": 0,
            "source": 1
        }
    ],
    "materials": [
        {
            "name": "Material",
            "alphaMode": "BLEND",
            "extras": {
                "fromFBX": {
                    "shadingModel": "Phong",
                    "isTruePBR": false
                }
            },
            "pbrMetallicRoughness": {
                "baseColorTexture": {
                    "index": 0,
                    "texCoord": 0
                },
                "baseColorFactor": [
                    0.800000011920929,
                    0.800000011920929,
                    0.800000011920929,
                    1.0
                ],
                "metallicFactor": 0.400000005960464,
                "roughnessFactor": 1.0
            }
        },
        {
            "name": "Material.001",
            "alphaMode": "OPAQUE",
            "extras": {
                "fromFBX": {
                    "shadingModel": "Phong",
                    "isTruePBR": false
                }
            },
            "pbrMetallicRoughness": {
                "baseColorTexture": {
                    "index": 1,
                    "texCoord": 0
                },
                "baseColorFactor": [
                    0.800000011920929,
                    0.800000011920929,
                    0.800000011920929,
                    1.0
                ],
                "metallicFactor": 0.400000005960464,
                "roughnessFactor": 1.0
            }
        }
    ],
    "meshes": [
        {
            "name": "RainwolfHub",
            "primitives": [
                {
                    "material": 1,
                    "mode": 4,
                    "attributes": {
                        "COLOR_0": 3,
                        "NORMAL": 2,
                        "POSITION": 1,
                        "TEXCOORD_0": 4
                    },
                    "indices": 0
                },
                {
                    "material": 0,
                    "mode": 4,
                    "attributes": {
                        "COLOR_0": 8,
                        "NORMAL": 7,
                        "POSITION": 6,
                        "TEXCOORD_0": 9
                    },
                    "indices": 5
                }
            ]
        }
    ],
    "nodes": [
        {
            "name": "RootNode",
            "translation": [
                0.0,
                0.0,
                0.0
            ],
            "rotation": [
                0.0,
                0.0,
                0.0,
                1.0
            ],
            "scale": [
                1.0,
                1.0,
                1.0
            ],
            "children": [
                1
            ]
        },
        {
            "name": "RainwolfHub",
            "translation": [
                0.0,
                0.0,
                0.0
            ],
            "rotation": [
                -0.707106828689575,
                0.0,
                0.0,
                0.707106709480286
            ],
            "scale": [
                100.0,
                100.0,
                100.0
            ],
            "mesh": 0
        }
    ]
}