{
  "accessors": [
    {
      "bufferView": 2,
      "componentType": 5126,
      "count": 2011,
      "max": [
        -124.41815948486328,
        31.177761077880859,
        -73.512336730957031
      ],
      "min": [
        -126.06807708740234,
        30.651494979858398,
        -74.448753356933594
      ],
      "type": "VEC3"
    },
    {
      "bufferView": 2,
      "byteOffset": 24132,
      "componentType": 5126,
      "count": 2011,
      "max": [
        0.0099898418411612511,
        0.0099926963448524475,
        0.0099977366626262665
      ],
      "min": [
        -0.0099898418411612511,
        -0.0099998023360967636,
        -0.0099990908056497574
      ],
      "type": "VEC3"
    },
    {
      "bufferView": 3,
      "componentType": 5126,
      "count": 2011,
      "max": [
        0.9999961256980896,
        0.99910587072372437,
        0.99988198280334473,
        1
      ],
      "min": [
        -0.99999290704727173,
        -0.99719727039337158,
        -0.99988222122192383,
        -1
      ],
      "type": "VEC4"
    },
    {
      "bufferView": 3,
      "byteOffset": 32176,
      "componentType": 5126,
      "count": 2011,
      "max": [
        1,
        1,
        1,
        1
      ],
      "min": [
        1,
        1,
        1,
        1
      ],
      "type": "VEC4"
    },
    {
      "bufferView": 1,
      "componentType": 5126,
      "count": 2011,
      "max": [
        0.98372125625610352,
        0.99113082885742188
      ],
      "min": [
        0.016278743743896484,
        0.017610594630241394
      ],
      "type": "VEC2"
    },
    {
      "bufferView": 0,
      "componentType": 5125,
      "count": 9351,
      "max": [
        2010
      ],
      "min": [
        0
      ],
      "type": "SCALAR"
    },
    {
      "bufferView": 2,
      "byteOffset": 48264,
      "componentType": 5126,
      "count": 386,
      "max": [
        -125.16082763671875,
        30.790718078613281,
        -73.643936157226562
      ],
      "min": [
        -125.32540893554688,
        30.742666244506836,
        -73.720787048339844
      ],
      "type": "VEC3"
    },
    {
      "bufferView": 2,
      "byteOffset": 52896,
      "componentType": 5126,
      "count": 386,
      "max": [
        0.0099509535357356071,
        -0.00022660930699203163,
        0.0097443200647830963
      ],
      "min": [
        -0.0099509544670581818,
        -0.0099743679165840149,
        -0.0074254600331187248
      ],
      "type": "VEC3"
    },
    {
      "bufferView": 3,
      "byteOffset": 64352,
      "componentType": 5126,
      "count": 386,
      "max": [
        0.99455565214157104,
        0.99868804216384888,
        0.56450378894805908,
        1
      ],
      "min": [
        0.025402862578630447,
        -0.99856185913085938,
        -0.61425656080245972,
        1
      ],
      "type": "VEC4"
    },
    {
      "bufferView": 3,
      "byteOffset": 70528,
      "componentType": 5126,
      "count": 386,
      "max": [
        1,
        1,
        1,
        1
      ],
      "min": [
        1,
        1,
        1,
        1
      ],
      "type": "VEC4"
    },
    {
      "bufferView": 1,
      "byteOffset": 16088,
      "componentType": 5126,
      "count": 386,
      "max": [
        0.88292020559310913,
        0.74795812368392944
      ],
      "min": [
        0.12227803468704224,
        0.23491224646568298
      ],
      "type": "VEC2"
    },
    {
      "bufferView": 0,
      "byteOffset": 37404,
      "componentType": 5125,
      "count": 2112,
      "max": [
        385
      ],
      "min": [
        0
      ],
      "type": "SCALAR"
    },
    {
      "bufferView": 4,
      "componentType": 5126,
      "count": 1,
      "max": [
        1,
        0,
        0,
        0,
        0,
        1,
        0,
        0,
        0,
        0,
        1,
        0,
        0,
        0,
        0,
        1
      ],
      "min": [
        1,
        0,
        0,
        0,
        0,
        1,
        0,
        0,
        0,
        0,
        1,
        0,
        0,
        0,
        0,
        1
      ],
      "type": "MAT4"
    }
  ],
  "asset": {
    "extras": {
      "author": "simsora13 (https://sketchfab.com/simsora13)",
      "license": "CC-BY-4.0 (http://creativecommons.org/licenses/by/4.0/)",
      "source": "https://sketchfab.com/models/0f0f778188c14b60aa2c91d788899250",
      "title": "Rainwolf HUB2"
    },
    "generator": "Sketchfab-3.47.8",
    "version": "2.0"
  },
  "bufferViews": [
    {
      "buffer": 0,
      "byteLength": 45852,
      "byteOffset": 0,
      "name": "floatBufferViews",
      "target": 34963
    },
    {
      "buffer": 0,
      "byteLength": 19176,
      "byteOffset": 45852,
      "byteStride": 8,
      "name": "floatBufferViews",
      "target": 34962
    },
    {
      "buffer": 0,
      "byteLength": 57528,
      "byteOffset": 65028,
      "byteStride": 12,
      "name": "floatBufferViews",
      "target": 34962
    },
    {
      "buffer": 0,
      "byteLength": 76704,
      "byteOffset": 122556,
      "byteStride": 16,
      "name": "floatBufferViews",
      "target": 34962
    },
    {
      "buffer": 0,
      "byteLength": 64,
      "byteOffset": 199260,
      "byteStride": 64,
      "name": "floatBufferViews"
    }
  ],
  "buffers": [
    {
      "byteLength": 199324,
      "uri": "scene.bin"
    }
  ],
  "images": [
    {
      "uri": "textures/Material.001_baseColor.png"
    },
    {
      "uri": "textures/Material_baseColor.png"
    }
  ],
  "materials": [
    {
      "alphaMode": "BLEND",
      "doubleSided": true,
      "emissiveFactor": [
        0,
        0,
        0
      ],
      "name": "Material",
      "pbrMetallicRoughness": {
        "baseColorFactor": [
          1,
          1,
          1,
          1
        ],
        "baseColorTexture": {
          "index": 1,
          "texCoord": 0
        },
        "metallicFactor": 0,
        "roughnessFactor": 1
      }
    },
    {
      "doubleSided": true,
      "emissiveFactor": [
        0,
        0,
        0
      ],
      "name": "Material.001",
      "pbrMetallicRoughness": {
        "baseColorFactor": [
          1,
          1,
          1,
          1
        ],
        "baseColorTexture": {
          "index": 0,
          "texCoord": 0
        },
        "metallicFactor": 0,
        "roughnessFactor": 1
      }
    }
  ],
  "meshes": [
    {
      "primitives": [
        {
          "attributes": {
            "COLOR_0": 3,
            "NORMAL": 1,
            "POSITION": 0,
            "TANGENT": 2,
            "TEXCOORD_0": 4
          },
          "indices": 5,
          "material": 0,
          "mode": 4
        }
      ]
    },
    {
      "primitives": [
        {
          "attributes": {
            "COLOR_0": 9,
            "NORMAL": 7,
            "POSITION": 6,
            "TANGENT": 8,
            "TEXCOORD_0": 10
          },
          "indices": 11,
          "material": 1,
          "mode": 4
        }
      ]
    }
  ],
  "nodes": [
    {
      "children": [
        1
      ],
      "name": "RootNode (gltf orientation matrix)",
      "rotation": [
        -0.70710678118654746,
        -0,
        -0,
        0.70710678118654757
      ]
    },
    {
      "children": [
        2
      ],
      "name": "RootNode (model correction matrix)"
    },
    {
      "children": [
        3
      ],
      "matrix": [
        1,
        0,
        0,
        0,
        0,
        0,
        1,
        0,
        0,
        -1,
        0,
        0,
        0,
        0,
        0,
        1
      ],
      "name": "e5f398a80b704008a7723d2276e351a4.fbx"
    },
    {
      "children": [
        4
      ],
      "name": "RootNode"
    },
    {
      "children": [
        5
      ],
      "matrix": [
        100,
        0,
        0,
        0,
        0,
        -1.6292067939183141e-05,
        -99.999999999998678,
        0,
        0,
        99.999999999998678,
        -1.6292067939183141e-05,
        0,
        125.24290466308594,
        -29.821571350097656,
        75.358619689941406,
        1
      ],
      "name": "Armature"
    },
    {
      "children": [
        6,
        7
      ],
      "name": ""
    },
    {
      "name": "_rootJoint"
    },
    {
      "children": [
        8,
        9
      ],
      "matrix": [
        0.99999830126762401,
        -5.8412454357891921e-08,
        7.1525450806396692e-09,
        0,
        5.841249582657909e-08,
        0.99999904632565761,
        2.8689810889709654e-07,
        0,
        -7.1525671681611513e-09,
        -2.8689810847930172e-07,
        0.99999904632567438,
        0,
        125.24290466308594,
        -29.821577310562134,
        75.358616886716433,
        1
      ],
      "name": ""
    },
    {
      "mesh": 0,
      "name": ""
    },
    {
      "mesh": 1,
      "name": ""
    }
  ],
  "samplers": [
    {
      "magFilter": 9729,
      "minFilter": 9987,
      "wrapS": 10497,
      "wrapT": 10497
    }
  ],
  "scene": 0,
  "scenes": [
    {
      "name": "OSG_Scene",
      "nodes": [
        0
      ]
    }
  ],
  "skins": [
    {
      "inverseBindMatrices": 12,
      "joints": [
        6
      ],
      "skeleton": 6
    }
  ],
  "textures": [
    {
      "sampler": 0,
      "source": 0
    },
    {
      "sampler": 0,
      "source": 1
    }
  ]
}

